<svg width="23" height="24" viewBox="0 0 23 24" fill="none" xmlns="http://www.w3.org/2000/svg">
<path d="M11.6399 2.37305C6.21613 2.37305 1.81836 6.77082 1.81836 12.1946C1.81836 17.6184 6.21613 22.0161 11.6399 22.0161C17.0637 22.0161 21.4614 17.6184 21.4614 12.1946C21.4614 6.77082 17.0637 2.37305 11.6399 2.37305ZM11.6399 20.35C7.1369 20.35 3.48451 16.6976 3.48451 12.1946C3.48451 7.69159 7.1369 4.0392 11.6399 4.0392C16.1429 4.0392 19.7953 7.69159 19.7953 12.1946C19.7953 16.6976 16.1429 20.35 11.6399 20.35Z" fill="#007DFF"/>
<path d="M16.1867 11.9118L9.69528 7.1983C9.64322 7.16014 9.58158 7.13718 9.51724 7.13199C9.45289 7.1268 9.38837 7.13957 9.33086 7.1689C9.27335 7.19822 9.22512 7.24294 9.19153 7.29806C9.15794 7.35319 9.14032 7.41656 9.14063 7.48111V16.908C9.14063 17.1952 9.46509 17.3575 9.69528 17.1908L16.1867 12.4774C16.2315 12.4451 16.268 12.4026 16.2932 12.3534C16.3184 12.3043 16.3315 12.2498 16.3315 12.1946C16.3315 12.1393 16.3184 12.0849 16.2932 12.0357C16.268 11.9865 16.2315 11.9441 16.1867 11.9118V11.9118ZM10.5393 14.8495V9.53969L14.1939 12.1946L10.5393 14.8495V14.8495Z" fill="#007DFF"/>
</svg>
