<svg width="40" height="38" viewBox="0 0 40 38" fill="none" xmlns="http://www.w3.org/2000/svg">
<path fill-rule="evenodd" clip-rule="evenodd" d="M18.3793 0.108422C18.2193 0.163227 17.9686 0.292604 17.8222 0.395932C17.4822 0.636032 17.0071 1.22604 16.7551 1.72127C16.6468 1.93392 13.7594 8.09953 10.3387 15.4226C6.91788 22.7457 4.11317 28.7437 4.10598 28.7515C4.09278 28.7656 4.11157 26.2583 4.17051 20.1345L4.18526 18.601C4.19139 17.9632 4.97031 17.6565 5.40964 18.119V18.119C6.07377 18.8181 6.62322 19.3836 6.63065 19.3758C6.69226 19.3106 8.64801 15.458 8.63597 15.4255C8.62733 15.4021 7.69349 14.4148 6.56079 13.2314L4.86484 11.4596C4.62534 11.2094 4.33428 11.0143 4.01184 10.8878V10.8878C3.40553 10.65 3.12044 10.5897 2.60186 10.5897C1.88258 10.5897 1.38405 10.8063 0.887858 11.3342C0.548533 11.6953 0.308932 12.1 0.12701 12.6195V12.6195C0.042945 12.8594 0.000153321 13.1119 0.000453449 13.3661L0.0133517 24.2911L0.0261984 35.1724C0.0265326 35.4555 0.0745649 35.7366 0.168279 36.0038V36.0038C0.402928 36.6727 0.893101 37.3452 1.37259 37.6559C1.78324 37.922 2.15966 38.0081 2.80025 37.9822C3.64276 37.9482 4.15677 37.7131 4.78595 37.0742C5.23427 36.6189 5.44149 36.3478 5.68094 35.9031C5.81295 35.658 17.0248 11.3229 19.1304 6.71141V6.71141C19.1635 6.63895 19.2659 6.63745 19.301 6.7089L21.9208 12.0276C23.4101 15.0512 24.6486 17.5461 24.673 17.572C24.7009 17.6016 25.3053 17.0339 26.2974 16.0463V16.0463C27.2449 15.1032 27.4972 13.6662 26.9277 12.4566L25.1255 8.62902C23.612 5.41454 22.3082 2.65402 22.2282 2.49454C21.8243 1.68971 20.9941 0.715196 20.4183 0.370028C19.8014 0.000260296 18.997 -0.102971 18.3793 0.108422ZM36.0761 10.5172V10.5172C35.6644 10.5998 35.2667 10.7623 34.9338 11.0181C34.3172 11.492 33.3201 12.6408 27.5169 18.4121L20.0425 25.8454C19.9406 25.9467 19.775 25.9432 19.6776 25.8376V25.8376C18.5215 24.5847 15.1752 21.13 15.1464 21.1594C15.1039 21.2025 13.1258 24.9443 13.1021 25.0263C13.0836 25.0904 20.044 32.1942 20.1207 32.1896C20.1508 32.1878 23.5401 28.7436 27.6524 24.5358C31.7647 20.3281 35.1315 16.8879 35.1342 16.891C35.1394 16.8971 34.9715 26.9568 34.9486 28.009V28.009C34.9452 28.1698 34.7285 28.2182 34.6569 28.0742L33.3815 25.5085C32.527 23.7895 31.8125 22.3829 31.7937 22.3826C31.7749 22.3823 31.0499 23.1406 30.1825 24.0678V24.0678C29.2298 25.0861 28.9923 26.5815 29.5825 27.8449L30.9959 30.8707C32.3295 33.7255 33.4801 36.1265 33.5983 36.3015C33.7149 36.4739 34.0087 36.8108 34.2513 37.05C35.2979 38.0823 36.3949 38.2741 37.5198 37.6214C37.7919 37.4635 38.4176 36.8535 38.645 36.5245C38.8579 36.2166 39.1041 35.6723 39.2053 35.286C39.3164 34.8619 39.3181 34.7833 39.4282 24.7502C39.5543 13.2642 39.5548 13.4822 39.4029 12.8794C38.9364 11.0279 37.7451 10.182 36.0761 10.5172Z" fill="url(#paint0_linear_325_1725)"/>
<defs>
<linearGradient id="paint0_linear_325_1725" x1="0" y1="0" x2="42.5795" y2="3.81028" gradientUnits="userSpaceOnUse">
<stop stop-color="#3F34EC"/>
<stop offset="1" stop-color="#13D8D4"/>
</linearGradient>
</defs>
</svg>
