<svg width="48" height="48" viewBox="0 0 48 48" fill="none" xmlns="http://www.w3.org/2000/svg">
<rect width="48" height="48" rx="10" fill="url(#paint0_linear_325_1791)"/>
<path d="M19.249 33.9277H16.249C15.7186 33.9277 15.2099 33.717 14.8348 33.3419C14.4597 32.9669 14.249 32.4582 14.249 31.9277V24.9277C14.249 24.3973 14.4597 23.8886 14.8348 23.5135C15.2099 23.1384 15.7186 22.9277 16.249 22.9277H19.249M26.249 20.9277V16.9277C26.249 16.1321 25.933 15.369 25.3703 14.8064C24.8077 14.2438 24.0447 13.9277 23.249 13.9277L19.249 22.9277V33.9277H30.529C31.0114 33.9332 31.4794 33.7641 31.8469 33.4517C32.2145 33.1393 32.4567 32.7046 32.529 32.2277L33.909 23.2277C33.9525 22.9411 33.9332 22.6484 33.8524 22.37C33.7715 22.0916 33.6311 21.834 33.4409 21.6152C33.2506 21.3965 33.0151 21.2217 32.7506 21.103C32.4861 20.9842 32.1989 20.9245 31.909 20.9277H26.249Z" stroke="white" stroke-width="2" stroke-linecap="round" stroke-linejoin="round"/>
<defs>
<linearGradient id="paint0_linear_325_1791" x1="0" y1="0" x2="51.747" y2="4.45254" gradientUnits="userSpaceOnUse">
<stop stop-color="#3F34EC"/>
<stop offset="1" stop-color="#13D8D4"/>
</linearGradient>
</defs>
</svg>
